<?xml version="1.0" encoding="UTF-8"?>
<svg id="_图层_2" data-name="图层 2" xmlns="http://www.w3.org/2000/svg" viewBox="0 0 733.61 166.76">
  <defs>
    <style>
      .cls-1 {
        fill: #2563eb;
      }

      .cls-2 {
        fill: #141414;
      }

      .cls-3 {
        fill: #60a5fa;
      }
    </style>
  </defs>
  <g id="_图层_1-2" data-name="图层 1">
    <g>
      <path class="cls-1" d="m186.33,30.35l-37.38,91.99c-6.33,15.47-13.85,26.74-22.56,33.81-8.71,7.07-19.47,10.61-32.29,10.61s-22.87-3.73-31.35-11.19c-8.48-7.46-12.71-16.62-12.71-27.48,0-8.05,2.54-18.32,7.62-30.82l12.54-30.94c4.76-11.72,7.15-19.65,7.15-23.79,0-3.91-1.64-7.21-4.92-9.9s-7.27-4.04-11.95-4.04c-7.66,0-14.65,3.38-20.98,10.14-6.33,6.76-9.49,14.2-9.49,22.32,0,4.84,1.09,8.63,3.28,11.37,2.19,2.74,6.02,5.16,11.48,7.27,5.78,2.27,8.67,5.94,8.67,11.02,0,4.38-1.68,8.03-5.04,10.96-3.36,2.93-7.54,4.39-12.54,4.39-9.92,0-18.38-4.12-25.37-12.36C3.5,85.45,0,75.47,0,63.75c0-17.03,6.39-31.91,19.16-44.65C31.93,6.37,46.88,0,63.98,0c12.97,0,23.73,3.81,32.29,11.43s12.83,17.21,12.83,28.77c0,7.34-2.07,16.05-6.21,26.13l-17.81,43.95c-2.58,6.33-3.87,11.37-3.87,15.12s1.31,7.09,3.93,9.55c2.62,2.46,6.04,3.69,10.25,3.69,5.39,0,9.86-1.83,13.42-5.51,3.55-3.67,7.25-10.27,11.07-19.8l38.55-94.8c2.73-6.87,5.55-11.29,8.44-13.24,2.89-1.95,7.93-2.93,15.12-2.93h25.31c10.78,0,16.17,3.67,16.17,11.02,0,5.47-1.88,9.67-5.62,12.6s-9.06,4.39-15.94,4.39h-15.59Z"/>
      <path class="cls-3" d="m217.97,98.32l-3.98,9.84c-3.59,8.75-8.28,13.12-14.06,13.12-3.52,0-6.45-1.05-8.79-3.16s-3.52-4.73-3.52-7.85c0-1.8.86-4.84,2.58-9.14l13.24-32.7c3.2-7.89,7.73-11.84,13.59-11.84s9.33,2.74,10.66,8.2l.94,3.63c.47,1.88,1.17,3.05,2.11,3.52s3.24.7,6.91.7h27.42c10.23,0,15.35,3.59,15.35,10.78,0,9.92-6.49,14.88-19.45,14.88l-1.29,1.17c-12.42,11.88-18.63,21.06-18.63,27.54s3.59,9.73,10.78,9.73h14.77c9.92,0,14.88,3.44,14.88,10.31,0,4.84-1.74,8.59-5.21,11.25-3.48,2.66-8.34,3.98-14.59,3.98h-22.97c-7.81,0-14.2-2.7-19.16-8.09-4.96-5.39-7.44-12.38-7.44-20.98,0-5.47,1.33-10.78,3.98-15.94,2.66-5.16,7.34-11.48,14.06-18.98h-12.19Z"/>
    </g>
    <g>
      <path class="cls-2" d="m359.06,135.05c-4.38-2.45-7.79-5.92-10.24-10.4-2.46-4.48-3.68-9.6-3.68-15.36V27.05h11.68v81.6c0,6.29,1.52,11.12,4.56,14.48,3.04,3.36,7.23,5.04,12.56,5.04s9.52-1.71,12.56-5.12c3.04-3.41,4.56-8.21,4.56-14.4V27.05h11.68v82.24c0,8.85-2.67,15.98-8,21.36-5.33,5.39-12.27,8.08-20.8,8.08-5.55,0-10.51-1.23-14.88-3.68Z"/>
      <path class="cls-2" d="m421.78,54.73h10.56v8.16c1.81-3.2,4.21-5.57,7.2-7.12,2.98-1.54,6.34-2.32,10.08-2.32,2.24,0,4.21.21,5.92.64v10.56c-2.88-.96-5.55-1.44-8-1.44-4.38,0-7.95,1.39-10.72,4.16-2.78,2.77-4.16,6.56-4.16,11.36v58.72h-10.88V54.73Z"/>
      <path class="cls-2" d="m466.73,76.65h44v10.4h-44v-10.4Z"/>
      <path class="cls-2" d="m528.33,27.05h28.64c8.96,0,16.16,2.77,21.6,8.32,5.44,5.55,8.16,13.92,8.16,25.12v43.52c0,11.09-2.72,19.44-8.16,25.04-5.44,5.6-12.64,8.4-21.6,8.4h-28.64V27.05Zm28.64,100c5.76,0,10.21-1.92,13.36-5.76,3.15-3.84,4.72-9.54,4.72-17.12v-42.56c0-8.1-1.55-14.16-4.64-18.16-3.09-4-7.57-6-13.44-6h-16.96v89.6h16.96Z"/>
      <path class="cls-2" d="m605.45,27.21h11.04v14.4h-11.04v-14.4Zm0,27.52h10.88v82.72h-10.88V54.73Z"/>
      <path class="cls-2" d="m641.45,131.93c-4.38-4.53-6.56-11.65-6.56-21.36v-28.96c0-9.71,2.18-16.83,6.56-21.36,4.37-4.53,10.51-6.8,18.4-6.8s13.81,2.19,18.08,6.56c4.26,4.38,6.4,10.99,6.4,19.84v2.24h-10.88v-2.24c0-11.09-4.48-16.64-13.44-16.64-4.7,0-8.24,1.5-10.64,4.48-2.4,2.99-3.6,8.05-3.6,15.2v26.4c0,7.15,1.2,12.22,3.6,15.2,2.4,2.99,5.89,4.48,10.48,4.48,9.07,0,13.6-5.54,13.6-16.64v-2.24h10.88v2.08c0,8.85-2.14,15.49-6.4,19.92-4.27,4.43-10.24,6.64-17.92,6.64s-14.19-2.26-18.56-6.8Z"/>
      <path class="cls-2" d="m717.77,63.21v52c0,4.27,1.01,7.44,3.04,9.52,2.03,2.08,5.12,3.12,9.28,3.12h2.24v9.6h-2.72c-15.15,0-22.72-7.25-22.72-21.76v-52.48h-10.56v-8.48h10.56v-17.28l10.88-4.96v22.24h15.84v8.48h-15.84Z"/>
    </g>
  </g>
</svg>